<svg xmlns="http://www.w3.org/2000/svg" xmlns:xlink="http://www.w3.org/1999/xlink" width="1080" zoomAndPan="magnify" viewBox="0 0 810 809.999993" height="1080" preserveAspectRatio="xMidYMid meet" version="1.0"><path stroke-linecap="round" transform="matrix(3.396, 0, 0, 3.396, 0.0000035, -848.686641)" fill="none" stroke-linejoin="round" d="M 129.848314 433.963912 C 141.396828 424.574418 159.811186 411.623749 158.343467 415.863572 C 156.874597 420.104545 137.320341 427.346521 126.882969 436.316174 C 116.445597 445.284676 112.69463 461.982861 112.69463 461.982861 C 112.69463 461.982861 124.110865 443.816957 135.037094 440.555997 C 145.963322 437.295037 161.456044 434.685119 160.967188 426.694329 C 160.478332 418.70354 160.967188 412.45653 160.967188 412.45653 C 160.967188 412.45653 143.516739 412.669326 132.917182 416.582478 C 122.316475 420.49678 130.797271 424.085562 130.797271 420.877513 C 130.797271 417.669465 123.622009 411.363792 117.261124 425.552131 C 110.90139 439.740469 110.574719 461.982861 110.574719 461.982861 C 100.789539 413.647039 103.399457 383.478272 110.574719 362.930199 C 110.574719 362.930199 107.694492 377.661456 109.814403 385.977766 C 111.934315 394.295227 120.304687 391.848644 120.304687 391.848644 C 120.304687 391.848644 123.295338 395.545549 126.3389 395.110754 C 129.382463 394.67596 130.524661 392.01198 134.764484 394.133042 C 139.005457 396.252953 138.243992 391.632397 144.224143 390.002492 C 150.204295 388.371437 154.714427 389.241027 157.651016 385.055265 C 160.586455 380.869504 162.977826 377.934065 157.325495 372.117249 C 151.672015 366.300433 137.048882 352.546889 130.852483 345.480901 C 124.654934 338.413763 123.622009 341.729934 125.14379 346.133093 C 126.665571 350.536251 149.660227 377.118538 150.529816 385.923705 C 150.529816 385.923705 145.203007 381.03169 142.484965 374.50862 C 139.766923 367.98555 132.590511 352.982834 129.00403 348.741861 C 125.416399 344.502038 125.089728 350.698437 128.894757 358.636315 C 132.699785 366.573042 135.5271 387.773307 136.614087 390.056554 C 137.701074 392.338651 138.570663 382.662745 130.525812 368.421495 C 122.48096 354.179094 120.632508 344.284641 120.632508 344.284641 C 120.632508 344.284641 119.001453 366.573042 120.197713 378.857716 C 121.393974 391.143541 124.002742 393.753459 124.002742 393.753459 " stroke="#ffffff" stroke-width="2" stroke-opacity="1" stroke-miterlimit="10"/><path stroke-linecap="round" transform="matrix(3.396, 0, 0, 3.396, 0.0000035, -848.686641)" fill="none" stroke-linejoin="round" d="M 131.766932 346.505774 C 131.766932 346.505774 153.138584 366.354495 159.32233 366.79044 C 165.504926 367.225234 174.882917 360.048822 174.013328 357.114533 C 173.142588 354.177944 134.221566 344.176517 133.677498 345.263504 C 133.133429 346.35049 143.027883 352.438766 157.922475 351.67845 C 172.817068 350.916984 179.883056 347.437477 180.100453 342.545462 C 180.31785 337.653447 172.59852 337.325626 161.727504 337.978968 C 150.855337 338.63116 131.06758 342.545462 132.576708 342.653586 C 134.085837 342.762859 165.749929 340.044818 169.554957 337.4349 C 173.359986 334.826132 177.599809 326.127938 176.403548 323.301773 C 175.208438 320.474458 166.619518 319.387471 158.247996 324.932828 C 149.876474 330.478185 128.010214 342.635182 130.307264 341.382559 C 132.604314 340.129936 161.61823 326.129089 165.858053 321.889266 C 170.097876 317.649443 170.424547 312.757428 167.814629 309.604591 C 165.205861 306.450605 151.071584 311.34377 147.158432 315.475469 C 143.24413 319.606019 126.826606 339.501899 128.022867 339.284502 C 129.219127 339.068255 137.698773 331.457048 143.787048 322.32521 C 149.875324 313.193373 160.530093 311.235647 160.97639 307.322495 C 161.421537 303.408193 156.615791 292.101231 153.245557 292.426752 C 149.876474 292.753423 136.72106 312.430757 132.046443 322.32521 C 127.370675 332.218514 125.73962 337.327926 126.826606 336.023542 C 127.913593 334.719158 137.808047 313.084099 139.656499 306.016961 C 141.503801 298.949822 141.287554 287.426614 139.656499 284.816696 C 138.025444 282.207928 129.109853 285.252641 127.805469 286.665148 C 126.499935 288.077656 124.828621 295.905109 123.325244 304.168508 C 121.820717 312.433057 120.955728 333.957693 121.825318 331.675596 C 122.694907 329.392349 125.73847 305.799563 125.412949 299.603164 C 125.087428 293.405615 121.933441 288.840272 117.14955 290.893468 C 112.365659 292.946665 113.127124 299.493891 113.127124 299.493891 C 108.56063 302.321206 109.103548 309.279071 109.756891 317.650593 C 110.409083 326.020965 120.41166 339.720447 115.192974 327.65202 C 109.974288 315.583593 114.323385 307.430618 111.496069 300.690151 C 108.668754 293.949684 104.647478 291.991958 99.211395 291.014245 C 93.775312 290.035382 93.992709 295.363341 91.166544 294.276355 C 88.339229 293.189368 86.925571 296.450328 89.426215 301.124946 C 91.926859 305.799563 104.320807 321.12895 102.797876 315.584743 C 101.276095 310.040536 90.513202 296.559602 87.141818 295.688862 C 83.771584 294.819273 75.182665 298.516178 76.704446 304.929974 C 78.227377 311.34377 86.816297 323.737718 93.44749 329.065678 C 100.079834 334.393638 113.125974 335.698021 110.62648 334.936556 C 108.124685 334.17624 89.099544 323.848142 84.315653 318.412059 C 79.531761 312.975975 74.314226 316.563606 74.314226 316.563606 C 74.314226 316.563606 69.747732 315.584743 67.791156 318.303935 C 65.833429 321.021977 68.22595 324.827005 68.22595 324.827005 C 68.22595 324.827005 67.356361 328.741307 69.857005 334.068117 C 72.35765 339.394926 87.155621 340.403696 96.601477 341.384859 C 106.048483 342.366023 117.911016 341.025981 114.867453 340.372639 C 111.82274 339.721597 73.55391 338.090542 65.507909 346.679462 C 57.463057 355.268382 61.050688 360.920712 70.513798 361.029986 C 79.976908 361.139259 109.104699 348.091969 108.995425 346.570188 C 108.887301 345.048407 93.775312 349.397504 84.424926 354.505766 C 75.074541 359.615178 68.768868 366.683466 70.943992 370.161823 C 73.119115 373.641331 78.119254 375.272386 87.904434 368.965563 C 97.688464 362.65989 115.626618 343.96027 112.040138 346.570188 C 108.452507 349.178956 78.988843 374.620194 80.07583 377.663757 C 81.162816 380.708469 88.882147 382.665045 90.947996 379.407536 C 93.013846 376.148877 95.078546 377.990428 98.884724 379.293661 C 102.689752 380.599195 107.148123 370.269947 110.572418 362.9325 C 113.996714 355.592752 119.323523 343.742873 119.323523 343.742873 C 119.323523 343.742873 123.985488 341.568899 124.067156 338.266531 C 124.147673 334.964162 119.949259 334.677749 119.093473 336.797661 C 118.236537 338.918723 120.928122 337.737415 122.150839 337.002405 C 123.373555 336.267395 125.534875 333.321604 121.213385 332.634905 C 116.890744 331.947055 114.648906 335.005571 115.097503 338.673719 C 115.546101 342.343018 119.256809 344.789601 123.496632 341.650567 C 127.736454 338.511534 127.002595 333.985299 122.151989 333.455033 C 117.301383 332.924768 115.628919 336.350213 116.444446 339.202834 C 117.258824 342.056606 118.809361 338.835905 117.830498 337.491262 C 116.850485 336.146619 116.215547 340.380691 118.84847 341.383709 C 121.482543 342.386727 121.416979 339.245394 120.397857 338.918723 C 120.397857 338.918723 117.217415 345.196789 113.75171 352.127048 C 110.287156 359.058457 102.54022 373.612575 101.154168 375.650818 C 99.768116 377.690212 102.335475 370.5138 106.86171 362.809423 C 111.387946 355.102745 117.982331 343.702614 117.982331 343.702614 " stroke="#ffffff" stroke-width="2" stroke-opacity="1" stroke-miterlimit="10"/><path stroke-linecap="round" transform="matrix(3.396, 0, 0, 3.396, 0.0000035, -848.686641)" fill="none" stroke-linejoin="round" d="M 101.492342 312.514725 C 105.405493 320.559576 108.889602 330.490838 111.390246 332.440512 C 113.88974 334.391337 108.106281 320.94261 102.300968 316.686683 " stroke="#ffffff" stroke-width="2" stroke-opacity="1" stroke-miterlimit="10"/></svg>