<svg xmlns="http://www.w3.org/2000/svg" xmlns:xlink="http://www.w3.org/1999/xlink" width="1080" zoomAndPan="magnify" viewBox="0 0 810 809.999993" height="1080" preserveAspectRatio="xMidYMid meet" version="1.0"><path stroke-linecap="round" transform="matrix(3.1515, 0, 0, 3.1515, -729.931664, -765.909445)" fill="none" stroke-linejoin="round" d="M 365.90645 461.983412 C 382.680454 452.197646 391.068076 400.756367 414.551434 390.41159 C 438.036032 380.065574 421.680975 391.808494 414.551434 392.367504 C 407.423133 392.926514 413.15453 382.16279 420.493544 375.034488 C 427.832558 367.904946 443.069596 365.388783 443.069596 365.388783 C 443.069596 365.388783 440.832319 371.959315 435.381046 377.689473 C 429.929774 383.420871 423.639367 386.636106 420.493544 385.518087 C 417.348961 384.400068 442.0904 374.195353 447.961859 369.163027 C 453.833319 364.130701 457.4675 367.065812 457.4675 367.065812 C 457.4675 367.065812 455.790472 371.67919 449.640128 378.248483 C 443.488544 384.819015 427.553673 388.03425 427.553673 388.03425 " stroke="#ffffff" stroke-width="2" stroke-opacity="1" stroke-miterlimit="10"/><path stroke-linecap="round" transform="matrix(3.1515, 0, 0, 3.1515, -729.931664, -765.909445)" fill="none" stroke-linejoin="round" d="M 415.158784 381.260442 C 419.304874 378.320373 423.868673 382.480099 423.868673 382.480099 " stroke="#ffffff" stroke-width="2" stroke-opacity="1" stroke-miterlimit="10"/><path stroke-linecap="round" transform="matrix(3.1515, 0, 0, 3.1515, -729.931664, -765.909445)" fill="none" stroke-linejoin="round" d="M 442.998946 368.74532 C 445.795233 362.105376 449.917773 362.31485 450.547433 362.804448 C 451.177094 363.292807 447.821797 365.530085 446.494304 372.729038 C 445.165572 379.927991 437.26507 375.531523 437.26507 375.531523 " stroke="#ffffff" stroke-width="2" stroke-opacity="1" stroke-miterlimit="10"/><path stroke-linecap="round" transform="matrix(3.1515, 0, 0, 3.1515, -729.931664, -765.909445)" fill="none" stroke-linejoin="round" d="M 378.347201 461.983412 C 389.879406 441.714046 380.233703 380.487 363.669172 364.550888 C 347.103402 348.614776 348.46684 373.042629 351.297833 372.623681 C 354.128825 372.204734 352.870744 363.50352 344.273649 360.987357 C 335.676553 358.471194 333.265747 373.253342 335.048132 392.229921 C 336.830517 411.2065 337.879125 430.707383 345.950677 431.335804 C 354.023469 431.965464 371.113543 398.186906 370.063696 376.861495 " stroke="#ffffff" stroke-width="2" stroke-opacity="1" stroke-miterlimit="10"/><path stroke-linecap="round" transform="matrix(3.1515, 0, 0, 3.1515, -729.931664, -765.909445)" fill="none" stroke-linejoin="round" d="M 362.46067 363.434109 C 373.000045 368.74532 387.257887 367.234382 398.267028 362.591256 C 409.276169 357.94689 420.178714 356.792926 421.227322 357.002399 C 422.27469 357.213113 422.800233 343.478333 413.364004 338.655481 C 403.927774 333.833868 393.234703 336.874335 384.113303 335.40554 C 374.991904 333.937985 361.258366 344.736415 360.943536 348.406542 C 360.627466 352.07543 373.418992 339.179785 377.927014 333.728511 C 382.435035 328.275999 387.991664 332.679904 394.282071 321.146457 C 400.572477 309.61425 411.685736 309.719606 411.685736 309.719606 C 411.685736 309.719606 414.201898 296.509131 405.710159 293.364547 C 397.21842 290.218724 376.668932 297.872569 367.128586 306.468426 C 357.588239 315.065523 355.59638 321.04234 357.797713 323.767977 C 360.000285 326.493613 360.419232 304.267094 352.136967 295.25105 C 343.854701 286.235005 318.902549 277.847382 303.385386 289.484946 C 303.385386 289.484946 312.297312 292.210583 316.91069 302.695421 C 321.525307 313.179021 322.363202 317.792399 322.363202 317.792399 C 322.363202 317.792399 321.418711 321.251814 323.096979 323.767977 C 324.774008 326.28414 328.968439 327.017917 330.435994 329.009776 C 331.903549 331.001635 331.903549 336.139318 334.000764 337.293282 C 336.097979 338.446007 336.7264 333.309564 327.814474 330.269097 C 318.902549 327.22863 305.483841 329.954267 294.161109 342.849912 C 282.838377 355.745557 286.822095 369.793927 284.411289 372.100617 C 282.000483 374.407306 280.426332 368.327612 288.708597 362.665625 C 296.990863 357.003639 310.516166 355.430727 320.47546 357.94689 C 330.435994 360.463053 336.307453 361.930608 338.193955 360.357696 C 340.080457 358.784785 323.7254 358.365837 308.628425 366.857578 C 293.531449 375.350557 288.813954 401.140608 293.846279 411.940277 C 293.846279 411.940277 298.3543 398.520328 310.41081 395.270388 C 322.468558 392.020447 334.944015 382.478859 336.935874 375.454674 C 338.927733 368.430489 345.881266 360.030471 349.41257 359.729275 C 349.41257 359.729275 344.029469 346.658862 335.991383 344.701709 C 327.954537 342.744556 326.137446 349.104374 332.986862 351.412303 C 339.837517 353.717753 342.283029 350.154222 345.079316 350.362456 C 347.874364 350.573169 351.089598 358.679428 351.089598 358.679428 C 351.089598 358.679428 350.250464 347.216632 345.778388 342.324369 C 341.305072 337.432105 334.944015 329.883616 339.626804 327.997114 C 344.309594 326.109372 349.203096 338.132416 345.148728 343.443627 " stroke="#ffffff" stroke-width="2" stroke-opacity="1" stroke-miterlimit="10"/><path stroke-linecap="round" transform="matrix(3.1515, 0, 0, 3.1515, -729.931664, -765.909445)" fill="none" stroke-linejoin="round" d="M 349.41133 359.728036 C 349.41133 359.728036 338.438134 353.088093 331.09912 354.067289 C 323.760106 355.046485 329.066358 360.035429 329.066358 360.035429 " stroke="#ffffff" stroke-width="2" stroke-opacity="1" stroke-miterlimit="10"/><path stroke-linecap="round" transform="matrix(3.1515, 0, 0, 3.1515, -729.931664, -765.909445)" fill="none" stroke-linejoin="round" d="M 352.12953 358.331132 C 352.12953 358.331132 357.937775 343.442388 353.813995 334.566406 C 349.690215 325.690424 353.744584 322.056242 356.47022 325.131415 C 359.195856 328.206587 357.937775 336.873095 352.765388 336.035201 " stroke="#ffffff" stroke-width="2" stroke-opacity="1" stroke-miterlimit="10"/><path stroke-linecap="round" transform="matrix(3.1515, 0, 0, 3.1515, -729.931664, -765.909445)" fill="none" stroke-linejoin="round" d="M 353.53511 358.331132 C 353.53511 358.331132 354.793191 348.685427 360.453938 344.352173 C 366.114684 340.017679 371.21766 333.657861 368.071837 331.072286 C 364.927253 328.485472 360.033751 337.641579 361.921493 344.14146 " stroke="#ffffff" stroke-width="2" stroke-opacity="1" stroke-miterlimit="10"/><path stroke-linecap="round" transform="matrix(3.1515, 0, 0, 3.1515, -729.931664, -765.909445)" fill="none" stroke-linejoin="round" d="M 354.303593 358.331132 C 357.239943 352.319609 371.148249 346.797685 375.621564 348.685427 C 380.09488 350.573169 368.981622 357.353175 360.104402 351.20159 " stroke="#ffffff" stroke-width="2" stroke-opacity="1" stroke-miterlimit="10"/></svg>