<svg xmlns="http://www.w3.org/2000/svg" xmlns:xlink="http://www.w3.org/1999/xlink" width="1080" zoomAndPan="magnify" viewBox="0 0 810 809.999993" height="1080" preserveAspectRatio="xMidYMid meet" version="1.0"><path stroke-linecap="round" transform="matrix(2.82, 0, 0, 2.82, -620.359837, 20.525904)" fill="none" stroke-linejoin="round" d="M 325.660918 257.547066 C 332.869474 182.811635 346.905656 122.871472 371.944442 104.283539 C 371.944442 104.283539 376.875737 99.162473 385.790853 110.731622 C 394.705968 122.302157 406.276503 154.549499 402.673611 167.636822 C 399.069333 180.725531 374.030546 174.086291 370.61604 170.482013 C 367.201534 166.877735 360.563679 174.464449 357.718489 163.083686 C 354.873298 151.702923 361.512538 113.387041 375.358948 99.349474 C 389.205359 85.313292 424.10812 85.503064 428.470099 86.450537 C 432.833464 87.399396 433.117429 95.746581 433.117429 95.746581 C 433.117429 95.746581 445.1617 108.644133 443.833298 117.560634 C 442.506281 126.47575 433.117429 127.233451 433.117429 127.233451 C 433.117429 127.233451 434.538639 134.631778 426.004452 137.287197 C 417.467494 139.942616 399.120585 130.254562 387.878342 116.801547 C 376.634713 103.348532 368.34155 104.851469 360.563679 109.592992 C 352.787194 114.334515 328.317723 145.443226 312.763367 141.079862 C 297.210396 136.716497 302.141691 118.128564 302.141691 118.128564 C 302.141691 118.128564 295.312679 118.506722 296.071766 111.10978 C 296.830853 103.711453 313.144295 94.228408 326.800934 91.761375 C 340.457572 89.295728 353.546281 92.520462 355.823542 96.12474 C 358.099417 99.729017 349.56246 99.159702 344.251622 97.26337 C 338.940784 95.365653 321.490096 84.174662 311.43635 80.570384 C 301.383989 76.967491 315.040627 61.413136 315.040627 61.413136 C 315.040627 61.413136 315.989486 48.70397 322.438955 46.428095 C 328.888423 44.152219 338.183082 45.099693 350.322932 55.721369 C 362.462782 66.34443 369.977465 95.745196 369.977465 95.745196 C 369.977465 95.745196 367.77362 96.504283 365.877288 90.054815 C 363.979571 83.605346 367.395462 47.56534 375.741262 40.168398 C 384.087063 32.770071 396.796228 46.807638 396.796228 46.807638 C 396.796228 46.807638 404.952257 40.736328 411.97104 45.479236 C 418.988439 50.220759 422.023401 69.189621 419.179595 80.380612 C 416.334405 91.571603 399.261875 88.348254 392.244477 96.504283 C 385.225693 104.660312 374.318667 103.237717 373.655158 96.789633 C 372.99165 90.340165 378.206909 85.882607 380.768135 88.062904 C 383.329361 90.244586 372.211785 96.566617 369.977465 103.61726 C 369.977465 103.61726 366.068445 94.038636 361.325537 92.140919 C 356.584014 90.244586 360.894741 99.115376 366.731953 102.194665 C 366.731953 102.194665 357.057751 99.917404 356.773786 104.280768 C 356.538302 107.903054 363.792569 103.995418 368.913636 104.945662 " stroke="#ffffff" stroke-width="2" stroke-opacity="1" stroke-miterlimit="10"/></svg>