<svg xmlns="http://www.w3.org/2000/svg" xmlns:xlink="http://www.w3.org/1999/xlink" width="1080" zoomAndPan="magnify" viewBox="0 0 810 809.999993" height="1080" preserveAspectRatio="xMidYMid meet" version="1.0"><path stroke-linecap="round" transform="matrix(3.048, 0, 0, 3.048, 48.004088, -32.995639)" fill="none" stroke-linejoin="round" d="M 95.770995 257.547099 C 94.799559 209.21622 97.906104 187.865126 105.088069 173.502479 C 112.270033 159.138549 135.561434 156.033285 135.561434 156.033285 C 135.561434 156.033285 131.096416 171.172569 120.614388 187.865126 C 110.133642 204.557683 93.441086 218.533294 93.441086 218.533294 C 93.441086 218.533294 95.187877 195.047091 84.900649 176.219425 C 74.613421 157.390477 59.28062 156.033285 59.28062 156.033285 C 59.28062 156.033285 68.209375 186.894971 78.690121 200.870582 C 89.170868 214.844912 95.187877 207.662947 95.187877 207.662947 C 95.187877 207.662947 93.634604 165.737396 94.994359 147.10453 C 96.352832 128.470382 103.729596 114.689571 103.729596 114.689571 C 103.729596 114.689571 104.698469 117.01948 101.981523 125.171599 C 99.264577 133.322437 93.442368 150.016275 85.095449 152.344903 C 76.74853 154.673531 72.86663 147.881166 72.673112 145.162939 C 72.479594 142.445993 81.795385 154.673531 67.821057 147.686366 C 53.845447 140.69792 57.728629 128.275582 60.639093 125.558636 C 63.549557 122.84169 62.192366 132.547082 56.562393 132.547082 C 50.933701 132.547082 51.905138 120.319544 61.997566 113.137579 C 72.091275 105.955615 98.877541 106.732251 101.594486 107.895924 C 104.311432 109.060879 91.307258 122.065054 83.15514 122.258572 C 75.003021 122.453372 103.341277 103.430906 107.223178 108.672561 C 111.105078 113.912934 102.176323 138.369292 103.341277 150.208512 C 104.506232 162.049014 117.122088 156.420322 119.257197 147.298048 C 121.392306 138.174492 116.150651 143.222629 116.928569 149.433157 C 117.703924 155.643686 130.902898 153.315058 133.619843 143.804466 C 136.336789 134.292592 130.514579 139.922565 130.31978 145.551257 C 130.126261 151.179948 147.013617 150.598112 150.699436 140.699201 C 154.387818 130.800291 128.572988 108.867361 118.48056 105.178978 C 108.386851 101.490596 119.450715 125.558636 124.109252 130.411973 C 128.766507 135.264028 120.459317 109.642716 102.098147 101.490596 C 83.736976 93.338477 68.98473 97.997014 68.98473 97.997014 C 68.98473 97.997014 98.487941 106.537451 99.069777 97.997014 C 99.651614 89.456576 77.913485 69.853555 68.208094 65.970373 C 58.502702 62.088473 56.949429 71.01851 60.444293 73.540656 C 63.937875 76.064084 64.850359 65.970373 53.135453 67.330128 C 41.421828 68.688601 53.650647 91.203368 57.337748 93.144959 C 61.02613 95.08655 58.307902 87.709785 49.962265 86.352594 C 49.962265 86.352594 47.438838 93.339758 42.780301 97.998295 C 38.120483 102.655551 100.23345 113.914216 104.698469 93.921595 C 109.162206 73.930256 97.235839 63.449509 96.793695 63.059909 C 96.35155 62.671591 103.338714 92.563122 107.608933 96.251504 C 111.879151 99.938605 113.237624 49.860934 109.162206 43.650406 C 105.085505 37.438596 97.516505 43.650406 97.516505 43.650406 C 97.516505 43.650406 95.963232 37.826915 88.004632 38.020433 C 80.047313 38.215233 84.317531 44.037443 74.223821 46.56087 C 64.131393 49.084298 80.240831 65.776855 88.199431 73.735456 C 96.15675 81.692775 101.980241 99.938605 110.908997 98.96845 C 119.837752 97.998295 134.200398 70.630192 133.618562 68.495082 C 133.036725 66.359973 118.090961 83.634366 116.927288 93.728077 C 115.762333 103.820505 149.924081 77.617356 152.05919 69.853555 C 154.194299 62.089754 147.98249 54.132435 142.548598 53.550598 C 142.548598 53.550598 140.218689 46.95047 129.736661 43.845206 C 119.255915 40.73866 115.955851 56.461062 115.374015 70.436673 C 114.792178 84.412284 107.803733 98.969732 119.062397 99.746368 C 130.31978 100.521723 152.641026 98.774932 156.329408 95.087831 C 160.016509 91.399449 128.259002 96.164357 120.42087 102.464596 C 112.581456 108.763553 135.754953 120.902662 152.641026 115.46877 C 152.641026 115.46877 165.84 117.60388 168.556946 111.393351 C 171.273891 105.181542 168.556946 97.61254 168.556946 97.61254 C 168.556946 97.61254 172.438846 91.59553 168.750464 85.965557 C 168.750464 85.965557 174.185637 81.890138 168.363427 74.708174 C 162.539936 67.526209 139.053735 92.952722 121.779343 97.224222 " stroke="#ffffff" stroke-width="2" stroke-opacity="1" stroke-miterlimit="10"/><path stroke-linecap="round" transform="matrix(3.048, 0, 0, 3.048, 48.004088, -32.995639)" fill="none" stroke-linejoin="round" d="M 98.487941 257.547099 C 93.534641 216.19954 137.890062 178.549334 143.325235 176.219425 C 148.760408 173.890797 139.636853 184.759862 136.919907 178.549334 C 134.202961 172.337524 153.903381 152.346185 161.278863 149.046121 C 168.655627 145.746057 162.151618 157.586558 159.629472 158.751513 C 157.106045 159.916467 159.822991 153.607258 167.975109 152.928021 C 176.127228 152.248785 169.042664 162.342495 164.481527 163.700968 C 159.92039 165.059441 165.9374 159.430749 172.341446 159.333349 C 178.746774 159.237231 173.118082 169.620578 159.530791 178.162297 C 145.943499 186.701453 134.869382 184.229289 134.686116 176.802543 C 134.395198 165.059441 147.627493 155.348923 156.425527 148.464284 C 172.546499 135.847146 173.699919 127.695027 178.067537 131.092491 C 182.433874 134.488673 173.602519 148.948721 170.108937 149.821476 C 166.615355 150.695512 172.923283 142.155074 181.658519 140.213483 C 190.392475 138.273174 194.079575 139.826447 189.518438 146.618811 C 184.958583 153.412458 173.409001 156.421604 173.409001 153.703376 C 173.409001 150.98643 195.535448 145.06682 198.351075 150.209794 C 201.165421 155.354049 182.159616 162.357874 178.553255 162.146414 C 174.945613 161.936235 185.152101 157.586558 192.818502 159.429468 C 200.486184 161.273659 199.514748 166.417914 191.653548 169.03746 C 183.793629 171.658288 172.146646 169.911496 172.146646 169.911496 " stroke="#ffffff" stroke-width="2" stroke-opacity="1" stroke-miterlimit="10"/></svg>